<svg width="219" height="54" viewBox="0 0 219 54" fill="none" xmlns="http://www.w3.org/2000/svg">
<rect x="7" y="8" width="39" height="39" rx="19.5" fill="#EC5226"/>
<rect x="19" y="15" width="8" height="8" fill="white"/>
<rect x="27" y="23" width="8" height="8" fill="white"/>
<rect x="19" y="31" width="8" height="8" fill="white"/>
<path d="M66.648 18.2C68.152 18.2 69.464 18.456 70.584 18.968C71.704 19.48 72.56 20.176 73.152 21.056C73.744 21.936 74.04 22.92 74.04 24.008C74.04 25.8 73.48 27.208 72.36 28.232C71.24 29.24 69.336 29.744 66.648 29.744H63.48V34.352C63.48 34.528 63.416 34.68 63.288 34.808C63.16 34.936 63.008 35 62.832 35H57.672C57.496 35 57.344 34.936 57.216 34.808C57.088 34.68 57.024 34.528 57.024 34.352V18.848C57.024 18.672 57.088 18.52 57.216 18.392C57.344 18.264 57.496 18.2 57.672 18.2H66.648ZM66.552 25.304C66.936 25.304 67.24 25.192 67.464 24.968C67.688 24.728 67.8 24.416 67.8 24.032C67.8 23.632 67.688 23.304 67.464 23.048C67.24 22.792 66.936 22.664 66.552 22.664H63.504V25.304H66.552ZM85.4546 30.08H89.7986C89.9746 30.08 90.1266 30.144 90.2546 30.272C90.3826 30.4 90.4466 30.552 90.4466 30.728V34.352C90.4466 34.528 90.3826 34.68 90.2546 34.808C90.1266 34.936 89.9746 35 89.7986 35H74.5826C74.4066 35 74.2546 34.936 74.1266 34.808C73.9986 34.68 73.9346 34.528 73.9346 34.352V30.728C73.9346 30.552 73.9986 30.4 74.1266 30.272C74.2546 30.144 74.4066 30.08 74.5826 30.08H78.9746V23.12H74.5826C74.4066 23.12 74.2546 23.056 74.1266 22.928C73.9986 22.8 73.9346 22.648 73.9346 22.472V18.848C73.9346 18.672 73.9986 18.52 74.1266 18.392C74.2546 18.264 74.4066 18.2 74.5826 18.2H89.7986C89.9746 18.2 90.1266 18.264 90.2546 18.392C90.3826 18.52 90.4466 18.672 90.4466 18.848V22.472C90.4466 22.648 90.3826 22.8 90.2546 22.928C90.1266 23.056 89.9746 23.12 89.7986 23.12H85.4546V30.08ZM109.085 34.208C109.133 34.256 109.157 34.32 109.157 34.4C109.157 34.56 109.101 34.704 108.989 34.832C108.893 34.944 108.773 35 108.629 35H103.469C103.037 35 102.709 34.816 102.485 34.448L100.157 30.872L97.8773 34.448C97.6373 34.816 97.3093 35 96.8933 35H91.7093C91.5653 35 91.4373 34.952 91.3253 34.856C91.2293 34.744 91.1813 34.616 91.1813 34.472V34.4C91.1813 34.32 91.2053 34.256 91.2533 34.208L96.5573 26.096L91.8293 18.992C91.7813 18.928 91.7573 18.84 91.7573 18.728C91.7573 18.584 91.8053 18.464 91.9013 18.368C92.0133 18.256 92.1413 18.2 92.2853 18.2H97.4693C97.8853 18.2 98.2213 18.4 98.4773 18.8L100.349 21.872L102.365 18.752C102.477 18.608 102.597 18.48 102.725 18.368C102.869 18.256 103.077 18.2 103.349 18.2H108.509C108.653 18.2 108.773 18.256 108.869 18.368C108.981 18.464 109.037 18.584 109.037 18.728V18.8C109.037 18.88 109.013 18.944 108.965 18.992L103.949 26.408L109.085 34.208ZM125.948 30.32C126.124 30.32 126.276 30.384 126.404 30.512C126.532 30.64 126.596 30.792 126.596 30.968V34.352C126.596 34.528 126.532 34.68 126.404 34.808C126.276 34.936 126.124 35 125.948 35H110.78C110.604 35 110.452 34.936 110.324 34.808C110.196 34.68 110.132 34.528 110.132 34.352V18.848C110.132 18.672 110.196 18.52 110.324 18.392C110.452 18.264 110.604 18.2 110.78 18.2H125.708C125.884 18.2 126.036 18.264 126.164 18.392C126.292 18.52 126.356 18.672 126.356 18.848V22.232C126.356 22.408 126.292 22.56 126.164 22.688C126.036 22.816 125.884 22.88 125.708 22.88H116.372V24.392H124.388C124.564 24.392 124.716 24.456 124.844 24.584C124.972 24.712 125.036 24.864 125.036 25.04V28.16C125.036 28.336 124.972 28.488 124.844 28.616C124.716 28.744 124.564 28.808 124.388 28.808H116.372V30.32H125.948ZM143.987 30.08C144.163 30.08 144.315 30.144 144.443 30.272C144.571 30.4 144.635 30.552 144.635 30.728V34.352C144.635 34.528 144.571 34.68 144.443 34.808C144.315 34.936 144.163 35 143.987 35H129.971C129.795 35 129.643 34.936 129.515 34.808C129.387 34.68 129.323 34.528 129.323 34.352V18.848C129.323 18.672 129.387 18.52 129.515 18.392C129.643 18.264 129.795 18.2 129.971 18.2H135.155C135.331 18.2 135.483 18.264 135.611 18.392C135.739 18.52 135.803 18.672 135.803 18.848V30.08H143.987ZM156.601 18.2C158.105 18.2 159.417 18.456 160.537 18.968C161.657 19.48 162.513 20.176 163.105 21.056C163.697 21.936 163.993 22.92 163.993 24.008C163.993 25.8 163.433 27.208 162.313 28.232C161.193 29.24 159.289 29.744 156.601 29.744H153.433V34.352C153.433 34.528 153.369 34.68 153.241 34.808C153.113 34.936 152.961 35 152.785 35H147.625C147.449 35 147.297 34.936 147.169 34.808C147.041 34.68 146.977 34.528 146.977 34.352V18.848C146.977 18.672 147.041 18.52 147.169 18.392C147.297 18.264 147.449 18.2 147.625 18.2H156.601ZM156.505 25.304C156.889 25.304 157.193 25.192 157.417 24.968C157.641 24.728 157.753 24.416 157.753 24.032C157.753 23.632 157.641 23.304 157.417 23.048C157.193 22.792 156.889 22.664 156.505 22.664H153.457V25.304H156.505ZM179.968 30.08C180.144 30.08 180.296 30.144 180.424 30.272C180.552 30.4 180.616 30.552 180.616 30.728V34.352C180.616 34.528 180.552 34.68 180.424 34.808C180.296 34.936 180.144 35 179.968 35H165.952C165.776 35 165.624 34.936 165.496 34.808C165.368 34.68 165.304 34.528 165.304 34.352V18.848C165.304 18.672 165.368 18.52 165.496 18.392C165.624 18.264 165.776 18.2 165.952 18.2H171.136C171.312 18.2 171.464 18.264 171.592 18.392C171.72 18.52 171.784 18.672 171.784 18.848V30.08H179.968ZM186.678 34.184C186.47 34.728 186.11 35 185.598 35H181.062C180.918 35 180.79 34.952 180.678 34.856C180.582 34.744 180.534 34.616 180.534 34.472L180.558 34.328L185.79 18.992C185.854 18.784 185.974 18.6 186.15 18.44C186.326 18.28 186.566 18.2 186.87 18.2H193.542C193.846 18.2 194.086 18.28 194.262 18.44C194.438 18.6 194.558 18.784 194.622 18.992L199.854 34.328L199.878 34.472C199.878 34.616 199.822 34.744 199.71 34.856C199.614 34.952 199.494 35 199.35 35H194.814C194.302 35 193.942 34.728 193.734 34.184L193.134 32.504H187.278L186.678 34.184ZM190.206 22.832L188.502 27.824H191.91L190.206 22.832ZM216.909 18.2C217.053 18.2 217.173 18.256 217.269 18.368C217.381 18.464 217.437 18.576 217.437 18.704C217.437 18.8 217.413 18.896 217.365 18.992L211.317 29V34.352C211.317 34.528 211.253 34.68 211.125 34.808C210.997 34.936 210.845 35 210.669 35H205.557C205.381 35 205.229 34.936 205.101 34.808C204.973 34.68 204.909 34.528 204.909 34.352V29L198.885 18.992C198.837 18.896 198.813 18.808 198.813 18.728C198.813 18.584 198.861 18.464 198.957 18.368C199.069 18.256 199.197 18.2 199.341 18.2H204.405C204.853 18.2 205.181 18.384 205.389 18.752L208.101 23.504L210.885 18.8C211.125 18.4 211.461 18.2 211.893 18.2H216.909Z" fill="currentColor"/>
</svg>
