<svg width="32" height="32" viewBox="0 0 32 32" fill="none" xmlns="http://www.w3.org/2000/svg">
<g clip-path="url(#clip0_455_12)">
<path d="M12.9842 6.59841V24.1454L16.8985 25.4062V10.6882C16.8985 9.99591 17.2037 9.53541 17.6957 9.69516C18.3287 9.87891 18.454 10.5119 18.454 11.2034V17.0782C20.896 18.2699 22.8167 17.0744 22.8167 13.9259C22.8167 10.6882 21.6917 9.24966 18.3797 8.09766C17.071 7.64766 14.6485 6.90966 12.9887 6.59766L12.9842 6.59841ZM17.641 22.8404L23.938 20.5627C24.652 20.3054 24.7622 19.9387 24.184 19.7467C23.5982 19.5554 22.5467 19.6057 21.8237 19.8674L17.6207 21.3674V18.9802L17.8585 18.8984C17.8585 18.8984 19.0615 18.4777 20.7722 18.2812C22.468 18.1019 24.5582 18.3119 26.2105 18.9412C28.0585 19.5434 28.2535 20.4142 27.7847 21.0164C27.3197 21.6134 26.164 22.0514 26.164 22.0514L17.6207 25.1564V22.8592L17.641 22.8404ZM5.80895 22.6027C3.9062 22.0559 3.5942 20.9347 4.4567 20.2777C5.2577 19.6957 6.61295 19.2277 6.61295 19.2277L12.2297 17.2154V19.5277L8.2067 21.0007C7.49945 21.2707 7.38245 21.6337 7.96895 21.8249C8.5547 22.0207 9.6047 21.9779 10.309 21.7079L12.2462 21.0007V23.0744C12.1292 23.1022 11.992 23.1172 11.8555 23.1487C9.9182 23.4779 7.8632 23.3444 5.8202 22.6687L5.80895 22.6027Z" fill="black"/>
</g>
<defs>
<clipPath id="clip0_455_12">
<rect width="24" height="24" fill="white" transform="translate(4 4)"/>
</clipPath>
</defs>
</svg>
