<svg width="32" height="32" viewBox="0 0 32 32" fill="none" xmlns="http://www.w3.org/2000/svg">
<g clip-path="url(#clip0_455_13)">
<path d="M15.9807 4C9.67994 4 4.51169 8.85925 4.02344 15.0355L10.4532 17.6957C10.9999 17.3245 11.6562 17.1062 12.3672 17.1062C12.4294 17.1062 12.4924 17.11 12.5547 17.11L15.4144 12.9692V12.9107C15.4144 10.4147 17.4417 8.3875 19.9377 8.3875C22.4337 8.3875 24.4647 10.4185 24.4647 12.9145C24.4647 15.4105 22.4337 17.4377 19.9377 17.4377H19.8364L15.7579 20.3477C15.7579 20.4025 15.7617 20.4535 15.7617 20.5082C15.7617 22.3832 14.2459 23.9027 12.3709 23.9027C10.7382 23.9027 9.35519 22.7305 9.03869 21.1765L4.43744 19.27C5.86319 24.3092 10.4847 28.0007 15.9807 28.0007C22.6054 28.0007 27.9769 22.63 27.9769 16.0007C27.9769 9.3715 22.6062 4.00075 15.9807 4.00075V4ZM11.5392 22.2107L10.0662 21.601C10.3279 22.144 10.7809 22.597 11.3824 22.8512C12.6792 23.3905 14.1754 22.7732 14.7147 21.4765C14.9764 20.8435 14.9764 20.1565 14.7184 19.5272C14.4604 18.8942 13.9684 18.406 13.3392 18.1442C12.7182 17.8825 12.0499 17.8945 11.4642 18.1127L12.9837 18.742C13.9407 19.144 14.3937 20.242 13.9954 21.199C13.5972 22.156 12.4954 22.609 11.5384 22.2107H11.5392ZM22.9534 12.9062C22.9534 11.2457 21.6019 9.8905 19.9414 9.8905C18.2734 9.8905 16.9257 11.2457 16.9257 12.9062C16.9257 14.5705 18.2734 15.922 19.9414 15.922C21.6019 15.922 22.9534 14.5705 22.9534 12.9062ZM17.6839 12.9025C17.6839 11.6485 18.6957 10.6367 19.9459 10.6367C21.1962 10.6367 22.2154 11.6485 22.2154 12.9025C22.2154 14.1527 21.1962 15.1682 19.9459 15.1682C18.6957 15.1682 17.6839 14.1527 17.6839 12.9025Z" fill="black"/>
</g>
<defs>
<clipPath id="clip0_455_13">
<rect width="24" height="24" fill="white" transform="translate(4 4)"/>
</clipPath>
</defs>
</svg>
