<svg width="32" height="32" viewBox="0 0 32 32" fill="none" xmlns="http://www.w3.org/2000/svg">
<g clip-path="url(#clip0_455_11)">
<path d="M18.1757 28H21.8515C25.2265 28 28 25.3421 28 22.1077V10.8923C28 7.65794 25.2265 5 21.8515 5H18.1015C18.0273 5 17.9493 5.07116 17.9493 5.14231V27.8577C17.9493 27.9288 18.0235 28 18.1757 28ZM22.75 15.3507C24.1015 15.3507 25.1485 16.4288 25.1485 17.6493C25.1485 18.9445 24.0235 19.9478 22.75 19.9478C21.3985 19.9478 20.3515 18.9445 20.3515 17.6493C20.2735 16.3577 21.3985 15.3507 22.75 15.3507ZM15.3985 5H10.1485C6.7735 5 4 7.65794 4 10.8923V22.1077C4 25.3421 6.7735 28 10.1485 28H15.3985C15.4727 28 15.5508 27.9288 15.5508 27.8577V5.14231C15.5508 5.07116 15.4765 5 15.3985 5ZM13.6758 26.132H10.1485C7.82425 26.132 5.94925 24.3351 5.94925 22.1077V10.8923C5.94925 8.66491 7.82425 6.86803 10.1485 6.86803H13.6015L13.6758 26.132ZM7.75 11.8993C7.75 13.1197 8.7265 14.0555 10 14.0555C11.2735 14.0555 12.25 13.1197 12.25 11.8993C12.25 10.6788 11.2735 9.74303 10 9.74303C8.7265 9.74303 7.75 10.6788 7.75 11.8993Z" fill="black"/>
</g>
<defs>
<clipPath id="clip0_455_11">
<rect width="24" height="23" fill="white" transform="translate(4 5)"/>
</clipPath>
</defs>
</svg>
