<svg width="32" height="32" viewBox="0 0 32 32" fill="none" xmlns="http://www.w3.org/2000/svg">
<g clip-path="url(#clip0_455_14)">
<path d="M14.8033 27.9506C12.9546 27.7737 11.083 27.1101 9.4751 26.0617C8.12777 25.1831 7.82351 24.8219 7.82351 24.1012C7.82351 22.6534 9.41625 20.1176 12.1413 17.2269C13.689 15.5851 15.8448 13.6608 16.0779 13.7129C16.5311 13.8142 20.1546 17.3467 21.511 19.0096C23.6561 21.6392 24.6422 23.7922 24.1412 24.7521C23.7604 25.4818 21.3973 26.908 19.6613 27.4559C18.2304 27.9074 16.3513 28.0988 14.8033 27.9506ZM6.00378 22.5959C4.88418 20.8792 4.31852 19.1892 4.04541 16.7448C3.95523 15.9376 3.98755 15.476 4.25019 13.8193C4.57753 11.7545 5.75405 9.36572 7.16776 7.89565C7.76987 7.26954 7.82364 7.25428 8.55757 7.50139C9.44884 7.80147 10.4006 8.45846 11.8768 9.79248L12.738 10.5708L12.2677 11.1483C10.0845 13.8288 7.77991 17.6284 6.91136 19.9791C6.43918 21.2571 6.24874 22.5399 6.4519 23.074C6.58907 23.4345 6.46308 23.3001 6.00378 22.5959ZM25.6563 22.8879C25.7669 22.3482 25.627 21.3572 25.2991 20.3576C24.5891 18.1928 22.2158 14.1655 20.0364 11.4274L19.3504 10.5655L20.0926 9.88431C21.0617 8.99493 21.7346 8.46238 22.4606 8.01013C23.0335 7.65325 23.8522 7.33732 24.2041 7.33732C24.4211 7.33732 25.1849 8.12957 25.8015 8.99417C26.7565 10.3332 27.4591 11.9565 27.815 13.6463C28.045 14.7382 28.0642 17.0753 27.8521 18.1645C27.678 19.0583 27.3105 20.2178 26.9519 21.0041C26.6833 21.5933 26.0151 22.7376 25.7223 23.11C25.5717 23.3014 25.5716 23.301 25.6563 22.8879ZM15.0013 6.92854C13.9957 6.41819 12.4445 5.87035 11.5876 5.72296C11.2871 5.67129 10.7747 5.64248 10.4488 5.65893C9.74175 5.69461 9.77332 5.65766 10.9075 5.1221C11.8505 4.67684 12.637 4.41501 13.7048 4.19094C14.9059 3.93887 17.1637 3.93591 18.3457 4.18486C19.6224 4.45374 21.1257 5.01288 21.9728 5.5339L22.2246 5.68875L21.6469 5.6596C20.499 5.60167 18.8261 6.06516 17.03 6.93876C16.4883 7.20226 16.017 7.4127 15.9827 7.40642C15.9484 7.40014 15.5068 7.18509 15.0013 6.92854Z" fill="black"/>
</g>
<defs>
<clipPath id="clip0_455_14">
<rect width="24" height="24" fill="white" transform="translate(4 4)"/>
</clipPath>
</defs>
</svg>
